<svg width="256" height="256" viewBox="0 0 256 256" fill="none" xmlns="http://www.w3.org/2000/svg">
<circle cx="128" cy="128" r="128" fill="#110E3D"/>
<path d="M97.0197 90.3831L66.5457 119.731C61.105 124.971 58.8407 132.573 60.5704 139.812L69.8164 163.163L105.479 128.818C114.159 120.458 114.159 106.92 105.479 98.5607L97.0197 90.3831Z" fill="#A476FF"/>
<path d="M89.4406 158.348L119.915 187.696C125.355 192.936 133.249 195.116 140.765 193.451L165.012 184.546L129.349 150.17C120.669 141.811 106.612 141.811 97.9318 150.17L89.4406 158.348Z" fill="#A476FF"/>
<path d="M159.98 165.617L190.454 136.268C195.895 131.029 198.159 123.426 196.43 116.188L187.184 92.8364L151.521 127.182C142.841 135.541 142.841 149.08 151.521 157.439L159.98 165.617Z" fill="#A476FF"/>
<path d="M167.528 97.652L137.086 68.3037C131.645 63.064 123.751 60.8833 116.235 62.5491L91.9879 71.4536L127.651 105.799C136.331 114.159 150.389 114.159 159.068 105.799L167.528 97.652Z" fill="#A476FF"/>
</svg>
