<svg width="123" height="117" viewBox="0 0 123 117" fill="none" xmlns="http://www.w3.org/2000/svg">
<path d="M33.2366 25.1579L5.87679 51.1712C0.992107 55.8154 -1.04082 62.5537 0.51211 68.9697L8.81324 89.6676L40.8319 59.2248C48.6248 51.8155 48.6248 39.8155 40.8319 32.4062L33.2366 25.1579Z" fill="#A476FF"/>
<path d="M26.432 85.3992L53.7919 111.412C58.6765 116.057 65.7636 117.99 72.5118 116.513L94.2811 108.621L62.2624 78.1509C54.4695 70.7415 41.8484 70.7415 34.0555 78.1509L26.432 85.3992Z" fill="#A476FF"/>
<path d="M89.7634 91.842L117.123 65.8288C122.008 61.1845 124.041 54.4463 122.488 48.0302L114.187 27.3323L82.1682 57.7751C74.3753 65.1845 74.3753 77.1844 82.1682 84.5938L89.7634 91.842Z" fill="#A476FF"/>
<path d="M96.5398 31.6008L69.2082 5.58755C64.3235 0.943279 57.2365 -0.989596 50.4883 0.486906L28.719 8.37948L60.7376 38.8223C68.5305 46.2316 81.1516 46.2316 88.9445 38.8223L96.5398 31.6008Z" fill="#A476FF"/>
</svg>
