<svg width="417" height="103" viewBox="0 0 417 103" fill="none" xmlns="http://www.w3.org/2000/svg">
<g clip-path="url(#clip0_2_211)">
<path d="M29.144 22.1466L5.15234 45.0471C0.868997 49.1356 -0.913668 55.0675 0.44809 60.7158L7.72731 78.9369L35.8043 52.137C42.6378 45.6142 42.6378 35.0503 35.8043 28.5275L29.144 22.1466Z" fill="#A476FF"/>
<path d="M23.1771 75.1792L47.1688 98.0796C51.4522 102.168 57.6667 103.87 63.5842 102.57L82.6736 95.6218L54.5966 68.7982C47.763 62.2755 36.6957 62.2755 29.8621 68.7982L23.1771 75.1792Z" fill="#A476FF"/>
<path d="M78.712 80.851L102.704 57.9506C106.987 53.8621 108.77 47.9302 107.408 42.2819L100.129 24.0608L72.0518 50.8607C65.2182 57.3834 65.2182 67.9474 72.0518 74.4701L78.712 80.851Z" fill="#A476FF"/>
<path d="M84.6543 27.8185L60.6874 4.91807C56.404 0.829548 50.1894 -0.872032 44.272 0.427786L25.1826 7.37591L53.2596 34.1758C60.0931 40.6985 71.1605 40.6985 77.9941 34.1758L84.6543 27.8185Z" fill="#A476FF"/>
<path d="M288.522 34.7429C282.654 34.7429 277.875 36.4918 274.161 39.115V39.0914L273.097 37.0826C272.725 36.3972 271.983 35.9482 271.19 35.9482H258.415C257.226 35.9482 256.285 36.8699 256.285 37.9807V95.0073H274.31V60.0539C274.31 54.831 278.371 48.8046 285.848 48.8046C293.325 48.8046 296.593 54.6892 296.593 60.1721V95.0073H314.469V57.8088C314.445 47.2448 306.249 34.7429 288.522 34.7429Z" fill="#110E3D"/>
<path d="M333.782 28.7638C339.773 28.7638 344.329 24.3917 344.329 19.1452C344.329 13.8986 339.749 9.29016 333.782 9.29016C327.815 9.29016 323.234 13.6623 323.234 19.1452C323.234 24.2972 327.567 28.7638 333.782 28.7638Z" fill="#110E3D"/>
<path d="M340.665 35.9247H326.998C325.809 35.9247 324.868 36.8464 324.868 37.9571V93.0694C324.868 94.2038 325.834 95.1019 326.998 95.1019H340.665C341.853 95.1019 342.794 94.1802 342.794 93.0694V37.9808C342.819 36.8464 341.853 35.9247 340.665 35.9247Z" fill="#110E3D"/>
<path d="M235.983 28.7638C241.974 28.7638 246.53 24.3917 246.53 19.1452C246.53 13.8986 241.95 9.29016 235.983 9.29016C230.016 9.29016 225.435 13.6623 225.435 19.1452C225.435 24.2972 229.768 28.7638 235.983 28.7638Z" fill="#110E3D"/>
<path d="M242.866 35.9247H229.199C228.01 35.9247 227.069 36.8464 227.069 37.9571V93.0694C227.069 94.2038 228.035 95.1019 229.199 95.1019H242.866C244.054 95.1019 244.995 94.1802 244.995 93.0694V37.9808C245.02 36.8464 244.054 35.9247 242.866 35.9247Z" fill="#110E3D"/>
<path d="M414.893 35.8301H402.117C401.275 35.8301 400.508 36.3028 400.161 37.0354L399.072 39.3751C394.17 36.4918 388.401 34.8375 382.236 34.8375C364.458 34.8375 350.073 48.592 350.073 65.5369C350.073 82.4818 364.483 96.2835 382.236 96.2835C388.401 96.2835 394.17 94.6292 399.072 91.7459L400.186 93.9911C400.533 94.7001 401.3 95.1491 402.117 95.1491H414.868C416.057 95.1491 416.997 94.2274 416.997 93.1167V37.8862C417.022 36.7518 416.057 35.8301 414.893 35.8301ZM398.824 72.2723C398.651 72.6032 398.478 72.9104 398.28 73.2176C398.28 73.2176 398.28 73.2413 398.255 73.2413C398.057 73.5485 397.859 73.8321 397.661 74.1393L397.636 74.1629C397.438 74.4465 397.215 74.7301 396.967 75.0137L396.943 75.0374C396.72 75.2973 396.472 75.5809 396.225 75.8173L396.2 75.8409C395.952 76.1009 395.705 76.3372 395.432 76.5735L395.407 76.5971C395.284 76.7153 395.16 76.8099 395.036 76.928L395.011 76.9516C394.863 77.0698 394.739 77.188 394.59 77.2825L394.566 77.3061C394.442 77.4007 394.318 77.4952 394.169 77.5897C394.153 77.6055 394.136 77.6213 394.12 77.637C393.971 77.7315 393.823 77.8497 393.674 77.9442C393.674 77.9442 393.65 77.9442 393.65 77.9679C393.526 78.0624 393.377 78.1569 393.229 78.2278C393.204 78.2515 393.179 78.2515 393.154 78.2751C393.006 78.3696 392.857 78.4642 392.709 78.5351C392.56 78.6296 392.412 78.7005 392.263 78.7714C392.238 78.795 392.214 78.795 392.164 78.8187C391.867 78.9841 391.545 79.1259 391.223 79.2677C391.198 79.2913 391.149 79.2913 391.124 79.315C390.976 79.3859 390.827 79.4568 390.678 79.504H390.654C390.505 79.5749 390.332 79.6222 390.159 79.6931C390.134 79.7167 390.084 79.7167 390.059 79.7404C389.911 79.7876 389.762 79.8349 389.639 79.8822C389.614 79.8822 389.589 79.9058 389.564 79.9058C389.391 79.953 389.242 80.0003 389.069 80.0476C389.044 80.0476 388.995 80.0712 388.97 80.0712C388.821 80.1185 388.698 80.1421 388.549 80.1894C388.524 80.1894 388.475 80.213 388.45 80.213C388.277 80.2603 388.103 80.2839 387.955 80.3312C387.93 80.3312 387.881 80.3548 387.856 80.3548C387.707 80.3784 387.559 80.4021 387.435 80.4493C387.385 80.4493 387.361 80.473 387.311 80.473C387.138 80.4966 386.965 80.5202 386.791 80.5439C386.766 80.5439 386.742 80.5439 386.692 80.5675C386.544 80.5911 386.395 80.6148 386.247 80.6148C386.197 80.6148 386.148 80.6148 386.123 80.6384C385.949 80.662 385.776 80.662 385.603 80.6857H385.553C385.405 80.6857 385.231 80.7093 385.083 80.7093H384.39C375.452 80.7093 368.197 73.7848 368.197 65.2533C368.197 56.7217 375.452 49.7973 384.39 49.7973H385.083C385.256 49.7973 385.405 49.8209 385.553 49.8209H385.603C385.776 49.8445 385.949 49.8445 386.123 49.8682C386.172 49.8682 386.222 49.8682 386.247 49.8918C386.395 49.9154 386.544 49.9154 386.692 49.9391C386.717 49.9391 386.742 49.9391 386.791 49.9627C386.965 49.9863 387.138 50.01 387.311 50.0336C387.361 50.0336 387.385 50.0572 387.435 50.0572C387.584 50.0809 387.732 50.1045 387.856 50.1518C387.881 50.1518 387.93 50.1754 387.955 50.1754C388.128 50.2226 388.302 50.2463 388.45 50.2935C388.475 50.2935 388.524 50.3172 388.549 50.3172C388.698 50.3644 388.821 50.3881 388.97 50.4353C388.995 50.4353 389.044 50.459 389.069 50.459C389.242 50.5062 389.391 50.5535 389.564 50.6008C389.589 50.6008 389.614 50.6244 389.639 50.6244C389.787 50.6717 389.936 50.7189 390.059 50.7662C390.084 50.7898 390.134 50.7898 390.159 50.8135C390.332 50.8844 390.48 50.9316 390.654 51.0025H390.678C390.827 51.0734 390.976 51.1207 391.124 51.1916C391.149 51.2152 391.198 51.2152 391.223 51.2389C391.545 51.3807 391.842 51.5225 392.164 51.6879C392.189 51.7115 392.214 51.7115 392.263 51.7352C392.412 51.8061 392.56 51.9006 392.709 51.9715C392.857 52.066 393.006 52.1606 393.154 52.2315C393.179 52.2551 393.204 52.2551 393.229 52.2787C393.377 52.3733 393.501 52.4442 393.65 52.5387C393.65 52.5387 393.674 52.5387 393.674 52.5623C393.823 52.6569 393.971 52.7514 394.12 52.8696C394.136 52.8853 394.153 52.9011 394.169 52.9168C394.293 53.0114 394.442 53.1059 394.566 53.2004L394.59 53.2241C394.739 53.3422 394.863 53.4367 395.011 53.5549L395.036 53.5785C395.16 53.6967 395.284 53.7912 395.407 53.9094L395.432 53.933C395.705 54.1694 395.952 54.4057 396.2 54.6657L396.225 54.6893C396.472 54.9493 396.72 55.2092 396.943 55.4692L396.967 55.4928C397.19 55.7764 397.413 56.0364 397.636 56.3436L397.661 56.3672C397.859 56.6508 398.081 56.9581 398.255 57.2653C398.255 57.2653 398.255 57.2889 398.28 57.2889C398.478 57.5962 398.651 57.9034 398.824 58.2343C399.914 60.314 400.533 62.6773 400.533 65.1587C400.533 67.8293 399.914 70.1926 398.824 72.2723Z" fill="#110E3D"/>
<path d="M216.002 48.3793C216.002 47.2686 215.061 46.3469 213.873 46.3469H179.977C178.814 46.3469 177.848 47.2449 177.848 48.3793V61.2121C177.848 62.3228 178.789 63.2445 179.977 63.2445H198.052V76.8099C193.768 78.3933 189.485 78.8423 185.003 78.8423C167.722 78.8423 156.085 68.042 156.085 52.8223C156.085 36.0428 168.142 26.8023 183.939 26.8023C191.169 26.8023 197.804 28.4803 202.929 31.3635C204.737 32.3797 207.064 31.5762 207.782 29.6855L212.14 18.0817C212.486 17.16 212.09 16.1674 211.224 15.6475C203.944 11.4172 194.437 9.31384 182.453 9.31384C155.49 9.31384 135.807 27.6531 135.807 52.846C135.807 78.0388 154.574 96.3781 184.087 96.3781C195.13 96.3781 205.306 94.3693 212.66 90.8952C214.69 89.9499 215.953 87.9647 215.953 85.8141V63.3154V48.3793H216.002Z" fill="#110E3D"/>
</g>
<defs>
<clipPath id="clip0_2_211">
<rect width="417" height="103" fill="white"/>
</clipPath>
</defs>
</svg>
